{"title":"Ossessione 1943 DVDRip XviD MP3 Idiocracy","uid":11789660,"size":1446336651,"categoryP":"video","categoryS":"movies","magnet":"?xt=urn:btih:0d9e3b5eff3419ba3ae6cfaafa483653db814687&amp;dn=Ossessione+1943+DVDRip+XviD+MP3+Idiocracy&amp;tr=udp%3A%2F%2Ftracker.openbittorrent.com%3A80&amp;tr=udp%3A%2F%2Fopen.demonii.com%3A1337&amp;tr=udp%3A%2F%2Ftracker.coppersurfer.tk%3A6969&amp;tr=udp%3A%2F%2Fexodus.desync.com%3A6969","seeders":0,"leechers":1,"uploader":"Satafakap","files":6,"time":1427847527,"description":"Synopsis / Plot\n\nGino, a drifter, begins an affair with inn-owner Giovanna as they plan to get rid of her older husband.\n\nDirector: Luchino Visconti\nWriters: Luchino Visconti (scenario &amp; dialogue), Mario Alicata (scenario &amp; dialogue)\nStars: Clara Calamai, Massimo Girotti, Dhia Cristiani  \n &lt;a href=&quot;\nhttp://www.imdb.com/title/tt0035160/&quot; rel=&quot;nofollow&quot; target=&quot;_NEW&quot;&gt;\nhttp://www.imdb.com/title/tt0035160/&lt;/a&gt;\n\nGeneral\n\nComplete name         : Ossessione.1943.DVDRip.XviD.MP3-Idiocracy.avi\nFormat                : AVI\nFormat/Info           : Audio Video Interleave\nFile size             : 1.34 GiB\nDuration              : 2h 14mn\nOverall bit rate      : 1 423 Kbps\nWriting application   : VirtualDubMod 1.5.10.3 | www.virtualdub-fr.org\nWriting library       : VirtualDubMod build 2550/release\nSource                : Ossessione (multi subs) [1943] Luchino Visconti - Thanks!\nSample                : Yes\n\nVideo\n\nID                                       : 0\nFormat                                   : MPEG-4 Visual\nFormat profile                           : Advanced Simple@L5\nFormat settings, BVOP                    : 2\nFormat settings, QPel                    : No\nFormat settings, GMC                     : No warppoints\nFormat settings, Matrix                  : Default (H.263)\nCodec ID                                 : XVID\nCodec ID/Hint                            : XviD\nDuration                                 : 2h 14mn\nBit rate                                 : 1 285 Kbps\nWidth                                    : 592 pixels\nHeight                                   : 432 pixels\nDisplay aspect ratio                     : 1.370\nFrame rate                               : 25.000 fps\nColor space                              : YUV\nChroma subsampling                       : 4:2:0\nBit depth                                : 8 bits\nScan type                                : Progressive\nCompression mode                         : Lossy\nBits/(Pixel*Frame)                       : 0.201\nStream size                              : 1.21 GiB (90%)\nWriting library                          : XviD 1.2.1 (UTC 2008-12-04)\n\nAudio\n\nID                                       : 1\nFormat                                   : MPEG Audio\nFormat version                           : Version 1\nFormat profile                           : Layer 3\nCodec ID                                 : 55\nCodec ID/Hint                            : MP3\nDuration                                 : 2h 14mn\nBit rate mode                            : Constant\nBit rate                                 : 128 Kbps\nChannel(s)                               : 2 channels\nSampling rate                            : 48.0 KHz\nCompression mode                         : Lossy\nStream size                              : 123 MiB (9%)\nAlignment                                : Aligned on interleaves\nInterleave, duration                     : 40 ms (1.00 video frame)\nInterleave, preload duration             : 504 ms\nWriting library                          : LAME3.99r\nEncoding settings                        : -m s -V 4 -q 0 -lowpass 17 -b 128\n\nScreenshots:\n &lt;a href=&quot;\nhttp://i.imgur.com/n5CkSpM.jpg&quot; rel=&quot;nofollow&quot; target=&quot;_NEW&quot;&gt;\nhttp://i.imgur.com/n5CkSpM.jpg&lt;/a&gt;\n &lt;a href=&quot;\nhttp://i.imgur.com/nAHazIy.jpg&quot; rel=&quot;nofollow&quot; target=&quot;_NEW&quot;&gt;\nhttp://i.imgur.com/nAHazIy.jpg&lt;/a&gt;\n &lt;a href=&quot;\nhttp://i.imgur.com/F6gtn0f.jpg&quot; rel=&quot;nofollow&quot; target=&quot;_NEW&quot;&gt;\nhttp://i.imgur.com/F6gtn0f.jpg&lt;/a&gt;\n &lt;a href=&quot;\nhttp://i.imgur.com/03NVJXS.jpg&quot; rel=&quot;nofollow&quot; target=&quot;_NEW&quot;&gt;\nhttp://i.imgur.com/03NVJXS.jpg&lt;/a&gt;\n &lt;a href=&quot;\nhttp://i.imgur.com/39jR973.jpg&quot; rel=&quot;nofollow&quot; target=&quot;_NEW&quot;&gt;\nhttp://i.imgur.com/39jR973.jpg&lt;/a&gt;","torrent":{"xt":"urn:btih:0d9e3b5eff3419ba3ae6cfaafa483653db814687","amp;dn":"Ossessione+1943+DVDRip+XviD+MP3+Idiocracy","amp;tr":["udp%3A%2F%2Ftracker.openbittorrent.com%3A80","udp%3A%2F%2Fopen.demonii.com%3A1337","udp%3A%2F%2Ftracker.coppersurfer.tk%3A6969","udp%3A%2F%2Fexodus.desync.com%3A6969"],"infoHash":"0d9e3b5eff3419ba3ae6cfaafa483653db814687","infoHashBuffer":{"type":"Buffer","data":[13,158,59,94,255,52,25,186,58,230,207,170,250,72,54,83,219,129,70,135]},"announce":[],"urlList":[]}}